<mxfile host="Electron" modified="2023-08-05T21:37:04.920Z" agent="Mozilla/5.0 (X11; Linux x86_64) AppleWebKit/537.36 (KHTML, like Gecko) draw.io/21.3.7 Chrome/112.0.5615.204 Electron/24.5.0 Safari/537.36" etag="u3NA1JP9bgdYjW1NBn9U" version="21.3.7" type="device">
  <diagram name="Page-1" id="5RNv2rbV_o0LzYV_A5I6">
    <mxGraphModel dx="683" dy="464" grid="1" gridSize="10" guides="1" tooltips="1" connect="1" arrows="1" fold="1" page="1" pageScale="1" pageWidth="1169" pageHeight="827" math="0" shadow="0">
      <root>
        <mxCell id="0" />
        <mxCell id="1" parent="0" />
        <mxCell id="xJzOpkOTWPCsNE-4U95p-18" style="edgeStyle=orthogonalEdgeStyle;rounded=0;orthogonalLoop=1;jettySize=auto;html=1;" edge="1" parent="1" source="xJzOpkOTWPCsNE-4U95p-1">
          <mxGeometry relative="1" as="geometry">
            <mxPoint x="400" y="190" as="targetPoint" />
          </mxGeometry>
        </mxCell>
        <mxCell id="xJzOpkOTWPCsNE-4U95p-1" value="" style="rounded=1;whiteSpace=wrap;html=1;" vertex="1" parent="1">
          <mxGeometry x="200" y="120" width="120" height="140" as="geometry" />
        </mxCell>
        <mxCell id="xJzOpkOTWPCsNE-4U95p-15" value="" style="rounded=1;whiteSpace=wrap;html=1;" vertex="1" parent="1">
          <mxGeometry x="230" y="170" width="60" height="60" as="geometry" />
        </mxCell>
        <mxCell id="xJzOpkOTWPCsNE-4U95p-2" value="" style="endArrow=classic;html=1;rounded=0;entryX=0;entryY=0.25;entryDx=0;entryDy=0;" edge="1" parent="1" target="xJzOpkOTWPCsNE-4U95p-1">
          <mxGeometry width="50" height="50" relative="1" as="geometry">
            <mxPoint x="120" y="155" as="sourcePoint" />
            <mxPoint x="180" y="150" as="targetPoint" />
          </mxGeometry>
        </mxCell>
        <mxCell id="xJzOpkOTWPCsNE-4U95p-3" value="" style="endArrow=classic;html=1;rounded=0;entryX=0;entryY=0.75;entryDx=0;entryDy=0;" edge="1" parent="1" target="xJzOpkOTWPCsNE-4U95p-1">
          <mxGeometry width="50" height="50" relative="1" as="geometry">
            <mxPoint x="120" y="225" as="sourcePoint" />
            <mxPoint x="210" y="165" as="targetPoint" />
          </mxGeometry>
        </mxCell>
        <mxCell id="xJzOpkOTWPCsNE-4U95p-4" value="&lt;font style=&quot;font-size: 8px;&quot; data-font-src=&quot;https://fonts.googleapis.com/css?family=Calibri&quot; face=&quot;Calibri&quot;&gt;Load Value&lt;/font&gt;" style="text;html=1;align=center;verticalAlign=middle;resizable=0;points=[];autosize=1;strokeColor=none;fillColor=none;" vertex="1" parent="1">
          <mxGeometry x="70" y="140" width="60" height="30" as="geometry" />
        </mxCell>
        <mxCell id="xJzOpkOTWPCsNE-4U95p-5" value="&lt;font style=&quot;font-size: 8px;&quot; data-font-src=&quot;https://fonts.googleapis.com/css?family=Calibri&quot; face=&quot;Calibri&quot;&gt;Clk&lt;/font&gt;" style="text;html=1;align=center;verticalAlign=middle;resizable=0;points=[];autosize=1;strokeColor=none;fillColor=none;" vertex="1" parent="1">
          <mxGeometry x="85" y="210" width="30" height="30" as="geometry" />
        </mxCell>
        <mxCell id="xJzOpkOTWPCsNE-4U95p-6" value="" style="endArrow=classic;html=1;rounded=0;entryX=0.25;entryY=1;entryDx=0;entryDy=0;" edge="1" parent="1" target="xJzOpkOTWPCsNE-4U95p-1">
          <mxGeometry width="50" height="50" relative="1" as="geometry">
            <mxPoint x="230" y="300" as="sourcePoint" />
            <mxPoint x="210" y="235" as="targetPoint" />
          </mxGeometry>
        </mxCell>
        <mxCell id="xJzOpkOTWPCsNE-4U95p-8" value="&lt;font style=&quot;font-size: 8px;&quot; data-font-src=&quot;https://fonts.googleapis.com/css?family=Calibri&quot; face=&quot;Calibri&quot;&gt;RESETn&lt;/font&gt;" style="text;html=1;align=center;verticalAlign=middle;resizable=0;points=[];autosize=1;strokeColor=none;fillColor=none;" vertex="1" parent="1">
          <mxGeometry x="205" y="295" width="50" height="30" as="geometry" />
        </mxCell>
        <mxCell id="xJzOpkOTWPCsNE-4U95p-9" value="" style="endArrow=classic;html=1;rounded=0;entryX=0.75;entryY=1;entryDx=0;entryDy=0;" edge="1" parent="1" target="xJzOpkOTWPCsNE-4U95p-1">
          <mxGeometry width="50" height="50" relative="1" as="geometry">
            <mxPoint x="290" y="300" as="sourcePoint" />
            <mxPoint x="240" y="270" as="targetPoint" />
          </mxGeometry>
        </mxCell>
        <mxCell id="xJzOpkOTWPCsNE-4U95p-11" value="&lt;font style=&quot;font-size: 8px;&quot; data-font-src=&quot;https://fonts.googleapis.com/css?family=Calibri&quot; face=&quot;Calibri&quot;&gt;Enable&lt;/font&gt;" style="text;html=1;align=center;verticalAlign=middle;resizable=0;points=[];autosize=1;strokeColor=none;fillColor=none;" vertex="1" parent="1">
          <mxGeometry x="266" y="295" width="50" height="30" as="geometry" />
        </mxCell>
        <mxCell id="xJzOpkOTWPCsNE-4U95p-12" value="&lt;font style=&quot;font-size: 8px;&quot; data-font-src=&quot;https://fonts.googleapis.com/css?family=Calibri&quot; face=&quot;Calibri&quot;&gt;Delay Generator&lt;/font&gt;" style="text;html=1;align=center;verticalAlign=middle;resizable=0;points=[];autosize=1;strokeColor=none;fillColor=none;" vertex="1" parent="1">
          <mxGeometry x="220" y="130" width="80" height="30" as="geometry" />
        </mxCell>
        <mxCell id="xJzOpkOTWPCsNE-4U95p-14" value="&lt;font style=&quot;font-size: 8px;&quot; data-font-src=&quot;https://fonts.googleapis.com/css?family=Calibri&quot; face=&quot;Calibri&quot;&gt;Down Counter&lt;br&gt;Comparator&lt;br&gt;i == 0?&lt;br&gt;&lt;/font&gt;" style="text;html=1;align=center;verticalAlign=middle;resizable=0;points=[];autosize=1;strokeColor=none;fillColor=none;" vertex="1" parent="1">
          <mxGeometry x="225" y="165" width="70" height="60" as="geometry" />
        </mxCell>
        <mxCell id="xJzOpkOTWPCsNE-4U95p-16" value="" style="endArrow=classic;html=1;rounded=0;entryX=1;entryY=0.75;entryDx=0;entryDy=0;" edge="1" parent="1" target="xJzOpkOTWPCsNE-4U95p-15">
          <mxGeometry width="50" height="50" relative="1" as="geometry">
            <mxPoint x="310" y="215" as="sourcePoint" />
            <mxPoint x="210" y="235" as="targetPoint" />
          </mxGeometry>
        </mxCell>
        <mxCell id="xJzOpkOTWPCsNE-4U95p-17" value="&lt;font style=&quot;font-size: 8px;&quot; data-font-src=&quot;https://fonts.googleapis.com/css?family=Calibri&quot; face=&quot;Calibri&quot;&gt;0&lt;/font&gt;" style="text;html=1;align=center;verticalAlign=middle;resizable=0;points=[];autosize=1;strokeColor=none;fillColor=none;" vertex="1" parent="1">
          <mxGeometry x="295" y="205" width="30" height="30" as="geometry" />
        </mxCell>
        <mxCell id="xJzOpkOTWPCsNE-4U95p-19" value="&lt;font style=&quot;font-size: 8px;&quot; data-font-src=&quot;https://fonts.googleapis.com/css?family=Calibri&quot; face=&quot;Calibri&quot;&gt;timeout&lt;/font&gt;" style="text;html=1;align=center;verticalAlign=middle;resizable=0;points=[];autosize=1;strokeColor=none;fillColor=none;" vertex="1" parent="1">
          <mxGeometry x="390" y="175" width="50" height="30" as="geometry" />
        </mxCell>
      </root>
    </mxGraphModel>
  </diagram>
</mxfile>
